<svg xmlns="http://www.w3.org/2000/svg" width="128" height="128" viewBox="0 0 128 128">
  <defs>
    <linearGradient id="book" x1="24" y1="14" x2="86" y2="108" gradientUnits="userSpaceOnUse">
      <stop offset="0" stop-color="#60a5fa"/>
      <stop offset="1" stop-color="#2563eb"/>
    </linearGradient>
    <filter id="shadow" x="-20%" y="-20%" width="140%" height="150%">
      <feDropShadow dx="0" dy="5" stdDeviation="5" flood-color="#183153" flood-opacity="0.22"/>
    </filter>
  </defs>
  <rect x="24" y="15" width="61" height="96" rx="10" fill="url(#book)" filter="url(#shadow)"/>
  <path d="M38 16h39c4 0 8 4 8 8v80c-9-4-19-4-29 0V25c-6-2-12-2-18 0Z" fill="#dbeafe"/>
  <rect x="36" y="48" width="34" height="5" rx="2.5" fill="#1e40af" opacity="0.5"/>
  <rect x="36" y="62" width="30" height="5" rx="2.5" fill="#1e40af" opacity="0.4"/>
  <rect x="36" y="76" width="24" height="5" rx="2.5" fill="#1e40af" opacity="0.3"/>
  <path d="M82 34v34H68l23 26 23-26h-14V34Z" fill="#f97316" stroke="#ffffff" stroke-width="6" stroke-linejoin="round"/>
  <path d="M91 94 68 68h14V34h9Z" fill="#fb923c" opacity="0.75"/>
  <rect x="55" y="94" width="55" height="20" rx="6" fill="#22c55e" stroke="#ffffff" stroke-width="5"/>
  <text x="66" y="109" font-family="Arial, sans-serif" font-size="12" font-weight="700" fill="#f0fdf4">OUT</text>
</svg>
